<svg width="24" height="24" viewBox="0 0 24 24" fill="none" xmlns="http://www.w3.org/2000/svg">
<path d="M20.0469 2H3.95312C2.87444 2 2 2.87444 2 3.95312V20.0469C2 21.1256 2.87444 22 3.95312 22H20.0469C21.1256 22 22 21.1256 22 20.0469V3.95312C22 2.87444 21.1256 2 20.0469 2Z" fill="white"/>
<path fill-rule="evenodd" clip-rule="evenodd" d="M14.3804 17.915V19.8705C14.6983 20.0335 15.0743 20.1557 15.5084 20.2371C15.9424 20.3186 16.3999 20.3594 16.8808 20.3594C17.3495 20.3594 17.7948 20.3146 18.2166 20.2249C18.6384 20.1353 19.0083 19.9876 19.3262 19.7819C19.6441 19.5762 19.8958 19.3073 20.0812 18.9752C20.2666 18.6432 20.3594 18.2328 20.3594 17.7439C20.3594 17.3895 20.3064 17.0788 20.2004 16.812C20.0945 16.5452 19.9416 16.3079 19.7419 16.1001C19.5422 15.8923 19.3028 15.7059 19.0236 15.5409C18.7444 15.3759 18.4296 15.2201 18.0791 15.0734C17.8223 14.9675 17.592 14.8646 17.3882 14.7648C17.1845 14.665 17.0112 14.5632 16.8686 14.4593C16.7259 14.3554 16.6159 14.2454 16.5385 14.1293C16.4611 14.0132 16.4223 13.8818 16.4223 13.7351C16.4223 13.6007 16.457 13.4795 16.5263 13.3715C16.5955 13.2636 16.6934 13.1709 16.8197 13.0935C16.9461 13.0161 17.1009 12.956 17.2843 12.9132C17.4677 12.8704 17.6715 12.8491 17.8957 12.8491C18.0587 12.8491 18.2309 12.8613 18.4122 12.8857C18.5936 12.9102 18.776 12.9479 18.9594 12.9987C19.1428 13.0497 19.3211 13.1139 19.4943 13.1913C19.6675 13.2687 19.8275 13.3583 19.9742 13.4602V11.633C19.6767 11.5189 19.3517 11.4344 18.9991 11.3794C18.6466 11.3244 18.2421 11.2969 17.7856 11.2969C17.321 11.2969 16.8808 11.3468 16.4651 11.4466C16.0494 11.5464 15.6836 11.7022 15.3677 11.9141C15.0519 12.1259 14.8023 12.3958 14.6189 12.7238C14.4355 13.0517 14.3438 13.4438 14.3438 13.9001C14.3438 14.4827 14.5119 14.9797 14.8481 15.3912C15.1843 15.8027 15.6948 16.151 16.3795 16.4362C16.6485 16.5462 16.8992 16.6541 17.1315 16.76C17.3638 16.866 17.5645 16.976 17.7336 17.09C17.9028 17.2041 18.0362 17.3284 18.1341 17.4628C18.2319 17.5972 18.2808 17.75 18.2808 17.9211C18.2808 18.0474 18.2502 18.1645 18.1891 18.2725C18.128 18.3805 18.0352 18.4741 17.9109 18.5536C17.7866 18.633 17.6318 18.6952 17.4463 18.74C17.2609 18.7848 17.0439 18.8072 16.7952 18.8072C16.3714 18.8072 15.9516 18.7329 15.5359 18.5841C15.1202 18.4355 14.735 18.2124 14.3804 17.915V17.915ZM11.093 13.097H13.6016V11.4922H6.60938V13.097H9.1057V20.2422H11.093V13.097Z" fill="black"/>
</svg>
